<svg id="Capa_1" enable-background="new 0 0 512 512" height="512" viewBox="0 0 512 512" width="512" xmlns="http://www.w3.org/2000/svg"><g><g><g><path d="m291.764 256.352c-5.781 0-11.324-3.258-13.969-8.825-3.662-7.709-.382-16.927 7.327-20.589l94.366-44.832c34.687-16.479 57.101-51.942 57.101-90.344v-32.137h-97.624c-8.534 0-15.453-6.919-15.453-15.453s6.919-15.453 15.453-15.453h113.076c8.534 0 15.453 6.919 15.453 15.453v47.589c0 24.799-7.003 48.987-20.253 69.95-13.249 20.963-32.092 37.668-54.492 48.31l-94.366 44.832c-2.14 1.017-4.398 1.499-6.619 1.499z" fill="#fed402"/></g><g><path d="m220.236 256.352c5.781 0 11.324-3.258 13.969-8.825 3.662-7.709.382-16.927-7.327-20.589l-94.366-44.832c-34.687-16.479-57.101-51.942-57.101-90.344v-32.137h97.624c8.534 0 15.453-6.919 15.453-15.453s-6.919-15.453-15.453-15.453h-113.077c-8.534 0-15.453 6.919-15.453 15.453v47.589c0 24.799 7.003 48.987 20.253 69.95s32.092 37.668 54.492 48.31l94.366 44.832c2.141 1.017 4.399 1.499 6.62 1.499z" fill="#fed402"/></g></g><g fill="#fac600"><path d="m226.878 226.938-94.366-44.832c-8.898-4.227-16.981-9.711-24.094-16.167 1.049 2.696 2.132 5.382 3.251 8.059 6.162 14.748 13.292 28.935 21.314 42.548l80.633 38.307c2.141 1.017 4.398 1.499 6.62 1.499 5.781 0 11.324-3.258 13.969-8.825 3.662-7.709.382-16.927-7.327-20.589z"/><path d="m188.487 44.173c0-8.534-6.919-15.453-15.453-15.453h-88.165v11.626c0 6.451.196 12.877.547 19.28h87.618c8.535-.001 15.453-6.919 15.453-15.453z"/></g><path d="m395.59 512h-279.18c-5.69 0-10.302-4.612-10.302-10.302v-28.845c0-5.69 4.612-10.302 10.302-10.302h279.18c5.69 0 10.302 4.612 10.302 10.302v28.845c-.001 5.69-4.613 10.302-10.302 10.302z" fill="#7a6d79"/><path d="m395.59 462.551h-30.905c5.69 0 10.302 4.612 10.302 10.302v28.845c0 5.69-4.612 10.302-10.302 10.302h30.905c5.69 0 10.302-4.612 10.302-10.302v-28.845c-.001-5.69-4.613-10.302-10.302-10.302z" fill="#685e68"/><path d="m228.306 306.6h55.387v64.901h-55.387z" fill="#fed402" transform="matrix(0 -1 1 0 -83.051 595.051)"/><path d="m257.545 311.357v5.939c0 18.775-15.22 33.996-33.996 33.996v15.453h64.901v-55.387h-30.905z" fill="#fac600"/><path d="m374.986 462.551h-237.972v-64.901c0-17.069 13.837-30.905 30.905-30.905h176.161c17.069 0 30.905 13.837 30.905 30.905v64.901z" fill="#7a6d79"/><path d="m344.08 366.744h-4.145c2.631 4.547 4.145 9.821 4.145 15.453 0 35.844-29.057 64.901-64.901 64.901h-142.165v15.453h237.972v-64.901c0-17.069-13.837-30.906-30.906-30.906z" fill="#685e68"/><path d="m302.358 264.999h-92.716c-60.062-59.326-93.868-140.232-93.868-224.653v-30.044c0-5.69 4.612-10.302 10.302-10.302h259.848c5.69 0 10.302 4.612 10.302 10.302v30.044c0 84.421-33.805 165.327-93.868 224.653z" fill="#fed402"/><path d="m385.924 0h-20.604v24.893c.561 54.396-20.882 108.143-43.412 149.421-25.326 46.402-74.001 75.232-126.864 75.232 4.682 5.292 9.538 10.455 14.598 15.453h92.716c60.062-59.326 93.868-140.232 93.868-224.653v-30.044c0-5.69-4.612-10.302-10.302-10.302z" fill="#fac600"/><path d="m204.491 311.357h103.018c5.69 0 10.302-4.612 10.302-10.302v-25.755c0-5.69-4.612-10.302-10.302-10.302h-103.018c-5.69 0-10.302 4.612-10.302 10.302v25.755c0 5.69 4.612 10.302 10.302 10.302z" fill="#fed402"/><path d="m307.509 264.999h-20.604c0 17.069-13.837 30.905-30.905 30.905h-61.811v5.151c0 5.69 4.612 10.302 10.302 10.302h103.018c5.69 0 10.302-4.612 10.302-10.302v-25.755c0-5.689-4.612-10.301-10.302-10.301z" fill="#fac600"/><path d="m263.838 61.598 9.426 29.01c1.103 3.396 4.268 5.695 7.838 5.695h30.503c7.984 0 11.303 10.216 4.844 14.909l-24.678 17.929c-2.889 2.099-4.097 5.819-2.994 9.214l9.426 29.01c2.467 7.593-6.223 13.907-12.682 9.214l-24.678-17.929c-2.889-2.099-6.8-2.099-9.688 0l-24.678 17.929c-6.459 4.693-15.149-1.621-12.682-9.214l9.426-29.01c1.103-3.396-.105-7.116-2.994-9.214l-24.678-17.929c-6.459-4.693-3.139-14.909 4.844-14.909h30.503c3.57 0 6.735-2.299 7.838-5.695l9.426-29.01c2.469-7.593 13.211-7.593 15.678 0z" fill="#fd4755"/></g></svg>