<svg id="Capa_1" enable-background="new 0 0 512 512" height="512" viewBox="0 0 512 512" width="512" xmlns="http://www.w3.org/2000/svg"><g><g><g><g><g><g><g><circle cx="256" cy="256" fill="#4a7aff" r="256"/></g></g></g></g></g></g><path d="m511.353 274.337-174.513-174.513-29.274 52.125-88.671-88.671-88.044 181.072 146.742 146.742-14.676 60.908 52.959 52.959c106.757-25.582 187.509-118.049 195.477-230.622z" fill="#0053bf"/><g><g><path d="m218.894 63.278c-4.984 1.661-61.465 6.645-61.465 6.645l-36.546 46.514-29.902 14.093 6.645 67.305 33.224 46.514h34.885l21.596-23.257 21.596 23.257 18.273 58.142 9.967 28.241-14.951 24.918 29.902 51.217 10.798 45.133h50.667l39.869-79.738 4.984-39.869 23.257-6.645-18.273-58.142 61.465-39.869 9.967-29.902h-41.53l-56.482-98.011h-61.465l-14.951 18.273-16.612-18.273z" fill="#2fddd0"/></g><g><path d="m434.851 197.836h-41.53l-56.481-98.012h-61.465l-14.95 18.274-4.425-4.867v309.859l6.917 28.91h50.666l39.869-79.738 4.984-39.869 23.257-6.645-18.274-58.142 61.465-39.869z" fill="#11bfae"/></g><g><path d="m428.206 322.426-24.918 16.612-16.612 31.563 6.645 28.24 34.885-31.562z" fill="#11bfae"/></g></g></g></svg>